<?xml version="1.0" encoding="iso-8859-1"?>
<!-- Generator: Adobe Illustrator 19.0.0, SVG Export Plug-In . SVG Version: 6.00 Build 0)  -->
<svg xmlns="http://www.w3.org/2000/svg" xmlns:xlink="http://www.w3.org/1999/xlink" version="1.1" id="Capa_1" x="0px" y="0px" viewBox="0 0 490 490" style="enable-background:new 0 0 490 490;" xml:space="preserve" width="512px" height="512px">
<path d="M115.245,369.039V490l97.795-77.964c10.813,1.69,21.536,2.543,31.96,2.543c114.695,0,208.003-92.994,208.003-207.286  C453.003,92.994,359.695,0,245,0S36.997,92.994,36.997,207.293C36.997,270.9,65.412,329.406,115.245,369.039z M348.807,166.913  c18.39,0,33.346,14.919,33.346,33.261s-14.957,33.261-33.346,33.261c-18.39,0-33.347-14.919-33.347-33.261  S330.417,166.913,348.807,166.913z M244.979,166.913c18.39,0,33.347,14.919,33.347,33.261s-14.957,33.261-33.347,33.261  s-33.346-14.919-33.346-33.261S226.589,166.913,244.979,166.913z M141.151,166.913c18.39,0,33.346,14.919,33.346,33.261  s-14.957,33.261-33.346,33.261c-18.391,0-33.346-14.919-33.346-33.261S122.76,166.913,141.151,166.913z" fill="#146aae"/>
<g>
</g>
<g>
</g>
<g>
</g>
<g>
</g>
<g>
</g>
<g>
</g>
<g>
</g>
<g>
</g>
<g>
</g>
<g>
</g>
<g>
</g>
<g>
</g>
<g>
</g>
<g>
</g>
<g>
</g>
</svg>
