<?xml version="1.0" encoding="iso-8859-1"?>
<!-- Generator: Adobe Illustrator 19.0.0, SVG Export Plug-In . SVG Version: 6.00 Build 0)  -->
<svg version="1.1" id="Layer_1" xmlns="http://www.w3.org/2000/svg" xmlns:xlink="http://www.w3.org/1999/xlink" x="0px" y="0px"
	 viewBox="0 0 512 512" style="enable-background:new 0 0 512 512;" xml:space="preserve">
<path style="fill:#FFFFFF;" d="M255.6,16C142,16,50,108,50,221.6c0,64.8,31.2,127.2,84,165.6l6.4,4.8v8v78.4l64-51.2l5.6-4.8
	l7.2,1.6c12.8,2.4,25.6,4,38.4,4c113.6,0,205.6-92,205.6-205.6C461.2,108,369.2,16,255.6,16z"/>
<path style="fill:#BFBFBF;" d="M255.6,0C133.2,0,34,99.2,34,221.6C34,294.4,69.2,360,124.4,400v112l90.4-72c13.6,2.4,27.2,4,41.6,4
	C378.8,444,478,344.8,478,222.4C477.2,99.2,378,0,255.6,0z M255.6,428c-12.8,0-25.6-1.6-38.4-4l-7.2-1.6l-5.6,4.8l-64,51.2V400v-8
	l-6.4-4.8c-52.8-38.4-84-100-84-165.6C50,108,142,16,255.6,16s205.6,92,205.6,205.6S369.2,428,255.6,428z"/>
<circle cx="136.4" cy="213.6" r="36"/>
<circle cx="255.6" cy="213.6" r="36"/>
<circle cx="374.8" cy="213.6" r="36"/>
<g>
</g>
<g>
</g>
<g>
</g>
<g>
</g>
<g>
</g>
<g>
</g>
<g>
</g>
<g>
</g>
<g>
</g>
<g>
</g>
<g>
</g>
<g>
</g>
<g>
</g>
<g>
</g>
<g>
</g>
</svg>
